<svg width="20" height="20" viewBox="0 0 20 20" fill="none" xmlns="http://www.w3.org/2000/svg">
<path d="M5.59608 7.99428V6.3954C5.59608 4.1878 7.38569 2.39819 9.59329 2.39819C11.2324 2.39819 12.6411 3.38478 13.2579 4.79652M9.59329 11.5918V13.1907M7.03507 16.7881H12.1515C13.4947 16.7881 14.1663 16.7881 14.6793 16.5267C15.1306 16.2968 15.4975 15.9299 15.7274 15.4786C15.9888 14.9656 15.9888 14.294 15.9888 12.9508V11.8316C15.9888 10.4884 15.9888 9.81682 15.7274 9.30379C15.4975 8.85252 15.1306 8.48562 14.6793 8.25569C14.1663 7.99428 13.4947 7.99428 12.1515 7.99428H7.03507C5.69189 7.99428 5.02029 7.99428 4.50726 8.25569C4.05599 8.48562 3.68909 8.85252 3.45916 9.30379C3.19775 9.81682 3.19775 10.4884 3.19775 11.8316V12.9508C3.19775 14.294 3.19775 14.9656 3.45916 15.4786C3.68909 15.9299 4.05599 16.2968 4.50726 16.5267C5.02029 16.7881 5.69189 16.7881 7.03507 16.7881Z" stroke="white" stroke-width="1.64457" stroke-linecap="round" stroke-linejoin="round"/>
</svg>
