<svg width="256" height="256" viewBox="0 0 256 256" fill="none" xmlns="http://www.w3.org/2000/svg">
<rect width="256" height="256" fill="white"/>
<rect x="57" y="100" width="56" height="56" rx="28" fill="#0D0D0D"/>
<path d="M76.1577 140.849V114.737H80.1297H91.1262H95.944L76.1577 126.138L96.606 140.849H91.9353H76.4129H80.1297H76.1577Z" fill="white"/>
<path d="M178.32 149.699C177.231 149.699 176.278 149.455 175.461 148.968C174.644 148.481 174.013 147.786 173.569 146.883C173.125 145.98 172.903 144.927 172.903 143.723C172.903 142.505 173.125 141.451 173.569 140.563C174.013 139.674 174.644 138.986 175.461 138.499C176.278 137.998 177.231 137.747 178.32 137.747C179.409 137.747 180.362 137.998 181.179 138.499C181.996 138.986 182.626 139.674 183.071 140.563C183.515 141.451 183.737 142.505 183.737 143.723C183.737 144.927 183.515 145.98 183.071 146.883C182.626 147.786 181.996 148.481 181.179 148.968C180.362 149.455 179.409 149.699 178.32 149.699ZM178.32 147.721C179.294 147.721 180.047 147.37 180.577 146.668C181.107 145.951 181.372 144.97 181.372 143.723C181.372 142.476 181.107 141.502 180.577 140.799C180.047 140.083 179.294 139.724 178.32 139.724C177.36 139.724 176.607 140.083 176.063 140.799C175.533 141.502 175.267 142.476 175.267 143.723C175.267 144.97 175.533 145.951 176.063 146.668C176.607 147.37 177.36 147.721 178.32 147.721Z" fill="#0D0D0D"/>
<path d="M169.182 149.441V138.005H171.46V149.441H169.182ZM169.139 136.349V134.071H171.503V136.349H169.139Z" fill="#0D0D0D"/>
<path d="M161.404 149.699C160.43 149.699 159.577 149.455 158.846 148.968C158.129 148.481 157.578 147.793 157.191 146.904C156.818 146.001 156.632 144.941 156.632 143.723C156.632 142.505 156.825 141.451 157.212 140.563C157.599 139.66 158.151 138.965 158.867 138.478C159.584 137.99 160.43 137.747 161.404 137.747C162.192 137.747 162.894 137.912 163.511 138.241C164.127 138.571 164.593 139.029 164.908 139.617V134.178H167.187V149.441H165.058L164.994 147.721C164.679 148.337 164.199 148.825 163.554 149.183C162.923 149.527 162.207 149.699 161.404 149.699ZM162.006 147.721C162.622 147.721 163.145 147.564 163.575 147.248C164.005 146.933 164.335 146.474 164.564 145.872C164.793 145.271 164.908 144.554 164.908 143.723C164.908 142.863 164.793 142.139 164.564 141.552C164.335 140.95 164.005 140.498 163.575 140.197C163.145 139.882 162.622 139.725 162.006 139.725C161.089 139.725 160.358 140.083 159.813 140.799C159.269 141.502 158.996 142.476 158.996 143.723C158.996 144.955 159.269 145.93 159.813 146.646C160.358 147.363 161.089 147.721 162.006 147.721Z" fill="#0D0D0D"/>
<path d="M149.577 149.699C148.431 149.699 147.514 149.319 146.826 148.559C146.152 147.785 145.815 146.718 145.815 145.356V138.005H148.094V144.776C148.094 145.808 148.273 146.567 148.631 147.055C148.99 147.542 149.534 147.785 150.265 147.785C151.096 147.785 151.741 147.52 152.2 146.99C152.673 146.446 152.909 145.686 152.909 144.712V138.005H155.188V149.441H153.06L153.017 146.453L153.339 146.582C153.139 147.585 152.716 148.359 152.071 148.903C151.426 149.434 150.595 149.699 149.577 149.699Z" fill="#0D0D0D"/>
<path d="M142.327 149.441C141.238 149.441 140.436 149.19 139.92 148.688C139.404 148.187 139.146 147.406 139.146 146.345V135.318H141.425V146.173C141.425 146.704 141.539 147.069 141.769 147.27C141.998 147.47 142.349 147.571 142.822 147.571H144.456V149.441H142.327ZM137.405 139.875V138.005H144.456V139.875H137.405Z" fill="#0D0D0D"/>
<path d="M130.981 149.785C129.762 149.785 128.702 149.563 127.799 149.118C126.911 148.674 126.208 148.058 125.692 147.27C125.176 146.482 124.876 145.564 124.79 144.518L127.176 144.368C127.276 145.084 127.484 145.693 127.799 146.195C128.114 146.682 128.537 147.055 129.067 147.313C129.612 147.556 130.264 147.678 131.024 147.678C131.683 147.678 132.242 147.599 132.7 147.442C133.173 147.27 133.531 147.019 133.775 146.689C134.019 146.36 134.14 145.958 134.14 145.486C134.14 145.056 134.033 144.676 133.818 144.346C133.617 144.002 133.223 143.694 132.636 143.422C132.062 143.135 131.217 142.856 130.099 142.583C128.881 142.283 127.907 141.953 127.176 141.595C126.445 141.236 125.915 140.792 125.585 140.262C125.27 139.717 125.112 139.051 125.112 138.263C125.112 137.389 125.32 136.622 125.735 135.963C126.165 135.289 126.774 134.766 127.563 134.393C128.351 134.021 129.297 133.834 130.4 133.834C131.561 133.834 132.55 134.049 133.367 134.479C134.198 134.909 134.85 135.497 135.323 136.242C135.81 136.987 136.111 137.84 136.226 138.8L133.84 138.929C133.768 138.342 133.589 137.826 133.302 137.381C133.015 136.923 132.629 136.572 132.141 136.328C131.654 136.07 131.059 135.941 130.357 135.941C129.469 135.941 128.766 136.149 128.25 136.565C127.749 136.966 127.498 137.503 127.498 138.177C127.498 138.607 127.598 138.972 127.799 139.273C128.014 139.56 128.387 139.81 128.917 140.025C129.461 140.24 130.228 140.47 131.217 140.713C132.535 141.014 133.582 141.387 134.355 141.831C135.144 142.261 135.703 142.77 136.032 143.357C136.362 143.945 136.527 144.611 136.527 145.357C136.527 146.259 136.29 147.048 135.817 147.721C135.359 148.38 134.714 148.889 133.883 149.247C133.051 149.606 132.084 149.785 130.981 149.785Z" fill="#0D0D0D"/>
<path d="M191.842 129.794C186.849 129.794 183.737 126.338 183.737 121.689C183.737 117.04 186.849 113.584 191.842 113.584C196.835 113.584 199.947 116.981 199.947 121.838V122.732H187.206C187.53 125.414 189.119 127.172 191.842 127.172C193.917 127.172 195.473 126.278 196.187 124.699H199.591C198.521 127.768 195.7 129.794 191.842 129.794ZM187.271 120.259H196.413C195.992 117.815 194.403 116.206 191.842 116.206C189.281 116.206 187.692 117.815 187.271 120.259Z" fill="#0D0D0D"/>
<path d="M176.368 107.689H179.792V125.588C179.792 126.693 180.248 127.154 181.487 127.154H183.737V129.794H180.704C177.803 129.794 176.368 128.781 176.368 125.957V107.689Z" fill="#0D0D0D"/>
<path d="M171.996 129.437V127.619C170.678 129.258 169.01 129.794 167.165 129.794C163.798 129.794 161.631 128.155 161.631 125.175C161.631 122.434 163.622 121.033 167.282 120.348L171.879 119.484V118.471C171.879 116.832 170.883 116.146 168.834 116.146C167.077 116.146 165.379 116.772 165.291 118.799H162.246C162.334 115.074 165.379 113.584 168.834 113.584C172.933 113.584 174.895 115.342 174.895 118.143V129.437H171.996ZM164.793 125.086C164.793 126.397 165.672 127.291 167.633 127.291C169.712 127.291 171.879 126.129 171.879 123.358V121.808L167.809 122.672C165.965 123.06 164.793 123.507 164.793 125.086Z" fill="#0D0D0D"/>
<path d="M152.339 129.794C147.183 129.794 143.947 126.338 143.947 121.689C143.947 117.04 147.183 113.584 152.339 113.584C156.889 113.584 159.619 115.908 160.158 119.335H156.552C156.114 117.428 154.597 116.266 152.339 116.266C149.205 116.266 147.587 118.501 147.587 121.689C147.587 124.877 149.205 127.112 152.339 127.112C154.631 127.112 156.147 125.891 156.552 123.924H160.158C159.619 127.41 156.687 129.794 152.339 129.794Z" fill="#0D0D0D"/>
<path d="M134.012 129.794C128.807 129.794 124.942 127.259 124.79 121.744H128.199C128.32 125.643 131.06 126.784 134.073 126.784C136.934 126.784 138.973 125.548 138.973 123.107C138.973 121.237 137.999 120.287 133.16 119.241C128.016 118.195 125.459 116.484 125.459 112.364C125.459 108.656 128.686 106.215 133.221 106.215C139.278 106.215 141.865 109.48 141.987 113.758H138.639C138.456 110.779 136.873 109.226 133.221 109.226C130.664 109.226 128.959 110.399 128.959 112.3C128.959 114.202 129.629 115.184 134.438 116.167C140.861 117.498 142.474 119.589 142.474 123.012C142.474 127.227 139.004 129.794 134.012 129.794Z" fill="#0D0D0D"/>
</svg>
