<svg width="37" height="37" viewBox="0 0 37 37" fill="none" xmlns="http://www.w3.org/2000/svg">
<g filter="url(#filter0_i_1542_144543)">
<rect width="36.1159" height="36.1159" rx="9.02899" fill="white"/>
</g>
<path d="M11.7592 12.2389C11.7897 10.4903 13.2322 9.07275 14.9811 9.07275H18.1478L18.0372 15.4051H14.8706C13.1217 15.4051 11.7287 13.9876 11.7592 12.2389Z" fill="#F24E1E"/>
<path d="M24.4258 12.2389C24.4563 10.4903 23.0633 9.07275 21.3144 9.07275H18.1478L18.0372 15.4051H21.2039C22.9528 15.4051 24.3953 13.9876 24.4258 12.2389Z" fill="#FF7262"/>
<path d="M11.6487 18.5713C11.6792 16.8227 13.1217 15.4051 14.8706 15.4051H18.0372L17.9267 21.7375H14.76C13.0112 21.7375 11.6181 20.3199 11.6487 18.5713Z" fill="#A259FF"/>
<path d="M24.3153 18.5713C24.3458 16.8227 22.9528 15.4051 21.2039 15.4051C19.455 15.4051 18.0125 16.8227 17.982 18.5713C17.9515 20.3199 19.3445 21.7375 21.0934 21.7375C22.8423 21.7375 24.2848 20.3199 24.3153 18.5713Z" fill="#1ABCFE"/>
<path d="M11.5381 24.9036C11.5686 23.155 13.0112 21.7375 14.76 21.7375H17.9267L17.8714 24.9036C17.8409 26.6523 16.3984 28.0698 14.6495 28.0698C12.9006 28.0698 11.5076 26.6523 11.5381 24.9036Z" fill="#0ACF83"/>
<defs>
<filter id="filter0_i_1542_144543" x="0" y="0" width="36.1157" height="49.9783" filterUnits="userSpaceOnUse" color-interpolation-filters="sRGB">
<feFlood flood-opacity="0" result="BackgroundImageFix"/>
<feBlend mode="normal" in="SourceGraphic" in2="BackgroundImageFix" result="shape"/>
<feColorMatrix in="SourceAlpha" type="matrix" values="0 0 0 0 0 0 0 0 0 0 0 0 0 0 0 0 0 0 127 0" result="hardAlpha"/>
<feOffset dy="13.8623"/>
<feGaussianBlur stdDeviation="12.2314"/>
<feComposite in2="hardAlpha" operator="arithmetic" k2="-1" k3="1"/>
<feColorMatrix type="matrix" values="0 0 0 0 1 0 0 0 0 1 0 0 0 0 1 0 0 0 0.35 0"/>
<feBlend mode="normal" in2="shape" result="effect1_innerShadow_1542_144543"/>
</filter>
</defs>
</svg>
