<svg width="481" height="456" viewBox="0 0 481 456" fill="none" xmlns="http://www.w3.org/2000/svg">
<rect width="481" height="485" rx="20" fill="white"/>
<rect x="137.5" y="103.5" width="209" height="209" rx="104.5" fill="#0051FF" fill-opacity="0.06"/>
<rect x="137.5" y="103.5" width="209" height="209" rx="104.5" stroke="url(#paint0_linear_144_204)"/>
<g filter="url(#filter0_d_144_204)">
<rect x="167" y="133" width="150" height="150" rx="75" fill="#0051FF" shape-rendering="crispEdges"/>
<path d="M199.049 189.449H202.282L206.598 199.986H206.764L211.09 189.449H214.362V204H211.774V194H211.657L207.614 203.951H205.719L201.725 193.98H201.588V204H199.049V189.449ZM219.108 204.225C218.412 204.225 217.787 204.101 217.233 203.854C216.68 203.6 216.244 203.229 215.925 202.74C215.606 202.252 215.446 201.65 215.446 200.934C215.446 200.322 215.56 199.814 215.788 199.41C216.016 199.007 216.325 198.684 216.716 198.443C217.113 198.202 217.559 198.02 218.054 197.896C218.548 197.766 219.059 197.675 219.587 197.623C220.231 197.551 220.752 197.49 221.149 197.438C221.546 197.385 221.833 197.301 222.009 197.184C222.191 197.066 222.282 196.884 222.282 196.637V196.588C222.282 196.061 222.126 195.65 221.813 195.357C221.501 195.064 221.045 194.918 220.446 194.918C219.815 194.918 219.313 195.055 218.942 195.328C218.578 195.602 218.33 195.924 218.2 196.295L215.807 195.953C215.996 195.289 216.309 194.736 216.745 194.293C217.181 193.844 217.712 193.508 218.337 193.287C218.968 193.059 219.665 192.945 220.427 192.945C220.947 192.945 221.468 193.007 221.989 193.131C222.51 193.248 222.988 193.45 223.425 193.736C223.861 194.023 224.209 194.407 224.47 194.889C224.73 195.37 224.86 195.973 224.86 196.695V204H222.389V202.496H222.311C222.155 202.796 221.934 203.079 221.647 203.346C221.367 203.606 221.016 203.818 220.593 203.98C220.176 204.143 219.681 204.225 219.108 204.225ZM219.762 202.33C220.283 202.33 220.733 202.229 221.11 202.027C221.488 201.819 221.781 201.546 221.989 201.207C222.197 200.862 222.302 200.488 222.302 200.084V198.805C222.217 198.87 222.08 198.932 221.891 198.99C221.703 199.042 221.488 199.091 221.247 199.137C221.006 199.182 220.768 199.221 220.534 199.254C220.306 199.286 220.108 199.312 219.938 199.332C219.554 199.384 219.209 199.472 218.903 199.596C218.604 199.713 218.366 199.876 218.19 200.084C218.014 200.292 217.927 200.562 217.927 200.895C217.927 201.37 218.099 201.728 218.444 201.969C218.789 202.21 219.229 202.33 219.762 202.33ZM226.364 204V193.082H228.855V194.918H228.972C229.167 194.28 229.509 193.792 229.997 193.453C230.486 193.108 231.042 192.936 231.667 192.936C231.804 192.936 231.96 192.942 232.136 192.955C232.318 192.968 232.468 192.984 232.585 193.004V195.367C232.474 195.328 232.302 195.296 232.068 195.27C231.833 195.243 231.609 195.23 231.394 195.23C230.918 195.23 230.495 195.331 230.124 195.533C229.753 195.735 229.46 196.012 229.245 196.363C229.037 196.715 228.933 197.125 228.933 197.594V204H226.364ZM235.496 200.582L235.486 197.467H235.906L239.822 193.082H242.83L238.005 198.463H237.468L235.496 200.582ZM233.152 204V189.449H235.72V204H233.152ZM239.998 204L236.443 199.039L238.181 197.223L243.074 204H239.998ZM247.762 204.215C246.668 204.215 245.724 203.987 244.93 203.531C244.135 203.069 243.523 202.418 243.094 201.578C242.671 200.738 242.459 199.749 242.459 198.609C242.459 197.483 242.671 196.497 243.094 195.65C243.517 194.798 244.113 194.133 244.881 193.658C245.649 193.183 246.554 192.945 247.596 192.945C248.266 192.945 248.901 193.053 249.5 193.268C250.105 193.482 250.639 193.814 251.102 194.264C251.57 194.713 251.938 195.286 252.205 195.982C252.472 196.673 252.605 197.496 252.605 198.453V199.254H243.66V197.525H251.326L250.125 198.033C250.125 197.415 250.031 196.878 249.842 196.422C249.653 195.96 249.373 195.598 249.002 195.338C248.631 195.077 248.169 194.947 247.615 194.947C247.062 194.947 246.59 195.077 246.199 195.338C245.809 195.598 245.512 195.95 245.311 196.393C245.109 196.829 245.008 197.317 245.008 197.857V199.059C245.008 199.723 245.122 200.292 245.35 200.768C245.584 201.236 245.91 201.594 246.326 201.842C246.749 202.089 247.241 202.213 247.801 202.213C248.165 202.213 248.497 202.161 248.797 202.057C249.103 201.952 249.363 201.796 249.578 201.588C249.799 201.373 249.969 201.109 250.086 200.797L252.488 201.08C252.332 201.712 252.042 202.265 251.619 202.74C251.202 203.209 250.665 203.574 250.008 203.834C249.357 204.088 248.608 204.215 247.762 204.215ZM259.041 193.082V195.074H252.782V193.082H259.041ZM254.315 190.484H256.883V200.719C256.883 201.148 256.978 201.467 257.166 201.676C257.355 201.878 257.655 201.979 258.065 201.979C258.176 201.979 258.299 201.969 258.436 201.949C258.573 201.93 258.696 201.907 258.807 201.881L259.246 203.893C258.973 203.977 258.696 204.039 258.416 204.078C258.136 204.124 257.857 204.146 257.577 204.146C256.561 204.146 255.763 203.88 255.184 203.346C254.605 202.805 254.315 202.07 254.315 201.139V190.484ZM260.057 204V193.082H262.626V204H260.057ZM261.346 191.549C260.936 191.549 260.585 191.412 260.292 191.139C259.999 190.865 259.852 190.536 259.852 190.152C259.852 189.762 259.999 189.43 260.292 189.156C260.585 188.883 260.936 188.746 261.346 188.746C261.75 188.746 262.098 188.883 262.391 189.156C262.684 189.43 262.831 189.758 262.831 190.143C262.831 190.533 262.684 190.865 262.391 191.139C262.098 191.412 261.75 191.549 261.346 191.549ZM266.698 197.613V204H264.13V193.082H266.65V194.947H266.777C267.024 194.335 267.411 193.85 267.939 193.492C268.473 193.128 269.15 192.945 269.97 192.945C270.725 192.945 271.383 193.105 271.943 193.424C272.502 193.743 272.935 194.212 273.241 194.83C273.554 195.442 273.71 196.184 273.71 197.057V204H271.142V197.457C271.142 196.728 270.953 196.158 270.575 195.748C270.198 195.331 269.677 195.123 269.013 195.123C268.564 195.123 268.163 195.221 267.812 195.416C267.467 195.611 267.193 195.895 266.991 196.266C266.796 196.63 266.698 197.079 266.698 197.613ZM279.941 208.316C278.554 208.316 277.464 208.046 276.67 207.506C275.875 206.972 275.364 206.324 275.136 205.562L277.441 204.996C277.545 205.211 277.698 205.423 277.9 205.631C278.102 205.846 278.372 206.021 278.711 206.158C279.049 206.301 279.476 206.373 279.99 206.373C280.719 206.373 281.321 206.194 281.796 205.836C282.278 205.484 282.519 204.908 282.519 204.107V202.047H282.373C282.249 202.307 282.06 202.577 281.806 202.857C281.552 203.131 281.217 203.365 280.8 203.561C280.39 203.749 279.869 203.844 279.238 203.844C278.405 203.844 277.646 203.645 276.963 203.248C276.285 202.851 275.745 202.258 275.341 201.471C274.944 200.683 274.746 199.697 274.746 198.512C274.746 197.314 274.944 196.301 275.341 195.475C275.745 194.648 276.289 194.02 276.972 193.59C277.656 193.16 278.418 192.945 279.257 192.945C279.895 192.945 280.423 193.053 280.839 193.268C281.256 193.482 281.588 193.743 281.836 194.049C282.083 194.348 282.275 194.628 282.412 194.889H282.548V193.082H285.058V204.176C285.058 205.107 284.837 205.878 284.394 206.49C283.951 207.102 283.343 207.558 282.568 207.857C281.8 208.163 280.924 208.316 279.941 208.316ZM279.961 201.822C280.781 201.822 281.412 201.529 281.855 200.943C282.304 200.351 282.529 199.534 282.529 198.492C282.529 197.802 282.431 197.2 282.236 196.686C282.041 196.171 281.751 195.771 281.367 195.484C280.983 195.198 280.514 195.055 279.961 195.055C279.388 195.055 278.909 195.204 278.525 195.504C278.141 195.803 277.851 196.214 277.656 196.734C277.467 197.249 277.373 197.835 277.373 198.492C277.373 199.156 277.47 199.739 277.666 200.24C277.861 200.742 278.151 201.132 278.535 201.412C278.925 201.686 279.401 201.822 279.961 201.822Z" fill="white"/>
<path d="M193.946 226H191.124L196.261 211.449H199.503L204.63 226H201.818L197.931 214.438H197.814L193.946 226ZM194.044 220.297H201.71V222.406H194.044V220.297ZM212.248 221.42V215.082H214.816V226H212.326V224.057H212.209C211.961 224.669 211.558 225.17 210.998 225.561C210.438 225.951 209.748 226.143 208.927 226.137C208.211 226.137 207.58 225.98 207.033 225.668C206.492 225.349 206.066 224.883 205.754 224.271C205.448 223.653 205.295 222.908 205.295 222.035V215.082H207.863V221.645C207.863 222.328 208.052 222.875 208.429 223.285C208.813 223.695 209.315 223.897 209.933 223.891C210.311 223.891 210.675 223.799 211.027 223.617C211.385 223.435 211.678 223.161 211.906 222.797C212.134 222.432 212.248 221.973 212.248 221.42ZM221.76 215.082V217.074H215.5V215.082H221.76ZM217.033 212.484H219.602V222.719C219.602 223.148 219.696 223.467 219.885 223.676C220.074 223.878 220.373 223.979 220.783 223.979C220.894 223.979 221.018 223.969 221.154 223.949C221.291 223.93 221.415 223.907 221.525 223.881L221.965 225.893C221.691 225.977 221.415 226.039 221.135 226.078C220.855 226.124 220.575 226.146 220.295 226.146C219.279 226.146 218.482 225.88 217.902 225.346C217.323 224.805 217.033 224.07 217.033 223.139V212.484ZM227.414 226.215C226.347 226.215 225.422 225.98 224.641 225.512C223.86 225.043 223.254 224.385 222.825 223.539C222.401 222.693 222.19 221.71 222.19 220.59C222.19 219.464 222.401 218.477 222.825 217.631C223.254 216.778 223.86 216.117 224.641 215.648C225.422 215.18 226.347 214.945 227.414 214.945C228.482 214.945 229.407 215.18 230.188 215.648C230.969 216.117 231.575 216.778 232.004 217.631C232.434 218.477 232.649 219.464 232.649 220.59C232.649 221.71 232.434 222.693 232.004 223.539C231.575 224.385 230.969 225.043 230.188 225.512C229.407 225.98 228.482 226.215 227.414 226.215ZM227.414 224.145C228.007 224.145 228.495 223.988 228.879 223.676C229.263 223.357 229.55 222.927 229.739 222.387C229.934 221.846 230.032 221.247 230.032 220.59C230.032 219.919 229.934 219.314 229.739 218.773C229.55 218.233 229.263 217.807 228.879 217.494C228.495 217.175 228.007 217.016 227.414 217.016C226.835 217.016 226.35 217.175 225.959 217.494C225.569 217.807 225.276 218.233 225.08 218.773C224.892 219.314 224.797 219.919 224.797 220.59C224.797 221.247 224.892 221.846 225.08 222.387C225.276 222.927 225.569 223.357 225.959 223.676C226.35 223.988 226.835 224.145 227.414 224.145ZM233.665 226V215.082H236.116V216.947H236.253C236.481 216.322 236.858 215.834 237.386 215.482C237.913 215.124 238.538 214.945 239.261 214.945C240.003 214.945 240.628 215.124 241.136 215.482C241.643 215.84 241.998 216.329 242.2 216.947H242.317C242.565 216.342 242.975 215.857 243.548 215.492C244.121 215.128 244.804 214.945 245.598 214.945C246.601 214.945 247.418 215.264 248.05 215.902C248.688 216.534 249.007 217.458 249.007 218.676V226H246.429V219.066C246.429 218.396 246.246 217.904 245.882 217.592C245.524 217.273 245.084 217.113 244.563 217.113C243.945 217.113 243.463 217.309 243.118 217.699C242.773 218.083 242.6 218.578 242.6 219.184V226H240.061V218.969C240.061 218.402 239.895 217.953 239.563 217.621C239.231 217.283 238.792 217.113 238.245 217.113C237.874 217.113 237.535 217.208 237.229 217.396C236.923 217.585 236.679 217.849 236.497 218.188C236.321 218.526 236.233 218.917 236.233 219.359V226H233.665ZM253.655 226.225C252.959 226.225 252.334 226.101 251.78 225.854C251.227 225.6 250.791 225.229 250.472 224.74C250.153 224.252 249.993 223.65 249.993 222.934C249.993 222.322 250.107 221.814 250.335 221.41C250.563 221.007 250.872 220.684 251.263 220.443C251.66 220.202 252.106 220.02 252.601 219.896C253.096 219.766 253.607 219.675 254.134 219.623C254.779 219.551 255.299 219.49 255.696 219.438C256.094 219.385 256.38 219.301 256.556 219.184C256.738 219.066 256.829 218.884 256.829 218.637V218.588C256.829 218.061 256.673 217.65 256.361 217.357C256.048 217.064 255.592 216.918 254.993 216.918C254.362 216.918 253.861 217.055 253.489 217.328C253.125 217.602 252.877 217.924 252.747 218.295L250.355 217.953C250.543 217.289 250.856 216.736 251.292 216.293C251.728 215.844 252.259 215.508 252.884 215.287C253.515 215.059 254.212 214.945 254.974 214.945C255.495 214.945 256.015 215.007 256.536 215.131C257.057 215.248 257.536 215.45 257.972 215.736C258.408 216.023 258.756 216.407 259.017 216.889C259.277 217.37 259.407 217.973 259.407 218.695V226H256.937V224.496H256.859C256.702 224.796 256.481 225.079 256.195 225.346C255.915 225.606 255.563 225.818 255.14 225.98C254.723 226.143 254.228 226.225 253.655 226.225ZM254.31 224.33C254.831 224.33 255.28 224.229 255.657 224.027C256.035 223.819 256.328 223.546 256.536 223.207C256.745 222.862 256.849 222.488 256.849 222.084V220.805C256.764 220.87 256.627 220.932 256.439 220.99C256.25 221.042 256.035 221.091 255.794 221.137C255.553 221.182 255.316 221.221 255.081 221.254C254.853 221.286 254.655 221.312 254.486 221.332C254.101 221.384 253.756 221.472 253.45 221.596C253.151 221.713 252.913 221.876 252.737 222.084C252.562 222.292 252.474 222.562 252.474 222.895C252.474 223.37 252.646 223.728 252.991 223.969C253.336 224.21 253.776 224.33 254.31 224.33ZM266.351 215.082V217.074H260.091V215.082H266.351ZM261.625 212.484H264.193V222.719C264.193 223.148 264.287 223.467 264.476 223.676C264.665 223.878 264.964 223.979 265.375 223.979C265.485 223.979 265.609 223.969 265.746 223.949C265.882 223.93 266.006 223.907 266.117 223.881L266.556 225.893C266.283 225.977 266.006 226.039 265.726 226.078C265.446 226.124 265.166 226.146 264.886 226.146C263.871 226.146 263.073 225.88 262.494 225.346C261.914 224.805 261.625 224.07 261.625 223.139V212.484ZM267.367 226V215.082H269.936V226H267.367ZM268.656 213.549C268.246 213.549 267.895 213.412 267.602 213.139C267.309 212.865 267.162 212.536 267.162 212.152C267.162 211.762 267.309 211.43 267.602 211.156C267.895 210.883 268.246 210.746 268.656 210.746C269.06 210.746 269.408 210.883 269.701 211.156C269.994 211.43 270.141 211.758 270.141 212.143C270.141 212.533 269.994 212.865 269.701 213.139C269.408 213.412 269.06 213.549 268.656 213.549ZM276.196 226.215C275.128 226.215 274.204 225.98 273.422 225.512C272.641 225.043 272.036 224.385 271.606 223.539C271.183 222.693 270.971 221.71 270.971 220.59C270.971 219.464 271.183 218.477 271.606 217.631C272.036 216.778 272.641 216.117 273.422 215.648C274.204 215.18 275.128 214.945 276.196 214.945C277.263 214.945 278.188 215.18 278.969 215.648C279.75 216.117 280.356 216.778 280.786 217.631C281.215 218.477 281.43 219.464 281.43 220.59C281.43 221.71 281.215 222.693 280.786 223.539C280.356 224.385 279.75 225.043 278.969 225.512C278.188 225.98 277.263 226.215 276.196 226.215ZM276.196 224.145C276.788 224.145 277.276 223.988 277.661 223.676C278.045 223.357 278.331 222.927 278.52 222.387C278.715 221.846 278.813 221.247 278.813 220.59C278.813 219.919 278.715 219.314 278.52 218.773C278.331 218.233 278.045 217.807 277.661 217.494C277.276 217.175 276.788 217.016 276.196 217.016C275.616 217.016 275.131 217.175 274.741 217.494C274.35 217.807 274.057 218.233 273.862 218.773C273.673 219.314 273.579 219.919 273.579 220.59C273.579 221.247 273.673 221.846 273.862 222.387C274.057 222.927 274.35 223.357 274.741 223.676C275.131 223.988 275.616 224.145 276.196 224.145ZM285.014 219.613V226H282.446V215.082H284.966V216.947H285.093C285.34 216.335 285.727 215.85 286.255 215.492C286.789 215.128 287.466 214.945 288.286 214.945C289.041 214.945 289.699 215.105 290.259 215.424C290.818 215.743 291.251 216.212 291.557 216.83C291.87 217.442 292.026 218.184 292.026 219.057V226H289.458V219.457C289.458 218.728 289.269 218.158 288.891 217.748C288.514 217.331 287.993 217.123 287.329 217.123C286.88 217.123 286.479 217.221 286.128 217.416C285.783 217.611 285.509 217.895 285.307 218.266C285.112 218.63 285.014 219.079 285.014 219.613Z" fill="white" fill-opacity="0.62"/>
</g>
<path d="M241 117L246.774 107L235.226 107L241 117ZM241 108L242 108L242 89L241 89L240 89L240 108L241 108Z" fill="#AEC7FF"/>
<path d="M241 299L235.226 309L246.774 309L241 299ZM241 308L240 308L240 327L241 327L242 327L242 308L241 308Z" fill="#AEC7FF"/>
<path d="M150.004 208.005L140.004 202.231L140.004 213.778L150.004 208.005ZM141.004 208.005L141.004 207.005L122.004 207.005L122.004 208.005L122.004 209.005L141.004 209.005L141.004 208.005Z" fill="#AEC7FF"/>
<path d="M332.004 208.005L342.004 213.778L342.004 202.231L332.004 208.005ZM341.004 208.005L341.004 209.005L360.004 209.005L360.004 208.005L360.004 207.005L341.004 207.005L341.004 208.005Z" fill="#AEC7FF"/>
<path d="M305.354 272.344L308.343 283.497L316.508 275.332L305.354 272.344ZM311.718 278.708L311.011 279.415L324.446 292.85L325.153 292.143L325.861 291.436L312.426 278.001L311.718 278.708Z" fill="#0051FF"/>
<path d="M176.661 143.65L173.673 132.496L165.508 140.661L176.661 143.65ZM170.297 137.286L171.004 136.579L157.569 123.144L156.862 123.851L156.155 124.558L169.59 137.993L170.297 137.286Z" fill="#0051FF"/>
<path d="M305.348 143.649L316.501 140.661L308.336 132.496L305.348 143.649ZM311.712 137.285L312.419 137.993L325.854 124.558L325.147 123.85L324.44 123.143L311.005 136.578L311.712 137.285Z" fill="#0051FF"/>
<path d="M176.654 272.343L165.501 275.331L173.666 283.496L176.654 272.343ZM170.29 278.707L169.583 278L156.148 291.435L156.855 292.142L157.562 292.849L170.997 279.414L170.29 278.707Z" fill="#0051FF"/>
<path d="M221 56.5398L240.985 45L260.97 56.5398V67.6949V78.85L240.985 90.3898L221 78.85V67.6949V56.5398Z" fill="#E5AEFF"/>
<path d="M221 338.54L240.985 327L260.97 338.54V349.695V360.85L240.985 372.39L221 360.85V349.695V338.54Z" fill="#E5AEFF"/>
<path d="M315 296.54L334.985 285L354.97 296.54V307.695V318.85L334.985 330.39L315 318.85V307.695V296.54Z" fill="#AEC7FF"/>
<path d="M167.971 119.46L147.986 131L128.001 119.46L128.001 108.305L128.001 97.15L147.986 85.6102L167.971 97.15L167.971 108.305L167.971 119.46Z" fill="#AEC7FF"/>
<path d="M360 197.54L379.985 186L399.97 197.54V208.695V219.85L379.985 231.39L360 219.85V208.695V197.54Z" fill="#E5AEFF"/>
<path d="M121.971 217.85L101.986 229.39L82.0006 217.85L82.0006 206.695L82.0006 195.54L101.986 184L121.971 195.54L121.971 206.695L121.971 217.85Z" fill="#E5AEFF"/>
<path d="M316 97.5398L335.985 86L355.97 97.5398V108.695V119.85L335.985 131.39L316 119.85V108.695V97.5398Z" fill="#E5AEFF"/>
<path d="M161.971 311.46L141.986 323L122.001 311.46L122.001 300.305L122.001 289.15L141.986 277.61L161.971 289.15L161.971 300.305L161.971 311.46Z" fill="#E5AEFF"/>
<rect x="204" y="108" width="78.3684" height="37.36" rx="13.6842" fill="#4486FF"/>
<path d="M224.302 134.937C223.112 134.937 222.078 134.751 221.202 134.381C220.332 134.003 219.652 133.465 219.16 132.767C218.668 132.068 218.394 131.238 218.337 130.276H220.753C220.803 130.853 220.988 131.334 221.309 131.719C221.637 132.097 222.061 132.378 222.581 132.563C223.101 132.749 223.671 132.841 224.291 132.841C224.969 132.841 225.574 132.734 226.109 132.521C226.643 132.307 227.06 132.007 227.36 131.623C227.666 131.231 227.819 130.774 227.819 130.254C227.819 129.784 227.684 129.399 227.413 129.1C227.149 128.8 226.79 128.554 226.333 128.362C225.877 128.162 225.364 127.988 224.794 127.838L222.923 127.325C221.64 126.983 220.628 126.473 219.887 125.796C219.146 125.112 218.775 124.217 218.775 123.113C218.775 122.193 219.021 121.392 219.513 120.707C220.012 120.023 220.685 119.492 221.533 119.114C222.389 118.73 223.347 118.537 224.409 118.537C225.492 118.537 226.444 118.73 227.264 119.114C228.09 119.492 228.742 120.012 229.22 120.675C229.705 121.331 229.958 122.083 229.979 122.931H227.648C227.563 122.197 227.221 121.627 226.622 121.22C226.031 120.814 225.275 120.611 224.356 120.611C223.714 120.611 223.151 120.714 222.666 120.921C222.189 121.121 221.818 121.399 221.555 121.755C221.298 122.111 221.17 122.521 221.17 122.984C221.17 123.483 221.323 123.89 221.629 124.203C221.943 124.517 222.321 124.766 222.763 124.952C223.212 125.13 223.643 125.276 224.056 125.39L225.606 125.807C226.112 125.935 226.633 126.106 227.167 126.32C227.702 126.534 228.197 126.815 228.653 127.165C229.117 127.507 229.487 127.934 229.765 128.447C230.05 128.953 230.193 129.566 230.193 130.286C230.193 131.177 229.961 131.975 229.498 132.681C229.035 133.379 228.365 133.932 227.488 134.338C226.611 134.737 225.549 134.937 224.302 134.937ZM236.544 134.926C235.396 134.926 234.405 134.662 233.572 134.135C232.738 133.608 232.096 132.881 231.647 131.954C231.198 131.027 230.974 129.966 230.974 128.768C230.974 127.549 231.202 126.477 231.658 125.55C232.121 124.617 232.766 123.89 233.593 123.369C234.427 122.842 235.403 122.578 236.522 122.578C237.434 122.578 238.243 122.746 238.949 123.081C239.662 123.409 240.235 123.875 240.67 124.481C241.112 125.087 241.372 125.793 241.451 126.598H239.184C239.106 126.22 238.953 125.875 238.724 125.561C238.504 125.247 238.211 124.998 237.848 124.813C237.484 124.627 237.053 124.535 236.554 124.535C235.906 124.535 235.339 124.706 234.854 125.048C234.377 125.383 234.003 125.864 233.732 126.491C233.461 127.118 233.326 127.859 233.326 128.715C233.326 129.577 233.457 130.329 233.721 130.97C233.985 131.612 234.359 132.107 234.844 132.456C235.335 132.799 235.906 132.97 236.554 132.97C237.224 132.97 237.794 132.784 238.265 132.414C238.742 132.043 239.049 131.537 239.184 130.896H241.451C241.372 131.673 241.123 132.364 240.702 132.97C240.282 133.575 239.719 134.053 239.013 134.402C238.308 134.751 237.484 134.926 236.544 134.926ZM246.123 134.937C245.367 134.937 244.683 134.798 244.07 134.52C243.457 134.235 242.973 133.821 242.616 133.28C242.26 132.738 242.082 132.079 242.082 131.302C242.082 130.625 242.21 130.072 242.467 129.645C242.73 129.21 243.083 128.864 243.525 128.608C243.967 128.351 244.459 128.159 245 128.031C245.542 127.902 246.098 127.802 246.668 127.731C247.388 127.653 247.969 127.585 248.411 127.528C248.853 127.471 249.173 127.382 249.373 127.261C249.58 127.132 249.683 126.929 249.683 126.651V126.598C249.683 125.921 249.491 125.397 249.106 125.026C248.728 124.656 248.165 124.47 247.417 124.47C246.64 124.47 246.023 124.642 245.567 124.984C245.118 125.319 244.808 125.7 244.637 126.128L242.445 125.625C242.709 124.898 243.09 124.314 243.589 123.872C244.095 123.423 244.673 123.095 245.321 122.888C245.977 122.682 246.661 122.578 247.374 122.578C247.851 122.578 248.357 122.635 248.892 122.749C249.426 122.856 249.929 123.059 250.399 123.359C250.877 123.651 251.265 124.071 251.565 124.62C251.864 125.169 252.014 125.878 252.014 126.748V134.68H249.736V133.044H249.651C249.508 133.337 249.284 133.629 248.977 133.921C248.678 134.213 248.293 134.456 247.823 134.648C247.352 134.841 246.786 134.937 246.123 134.937ZM246.625 133.077C247.274 133.077 247.826 132.952 248.282 132.702C248.739 132.446 249.088 132.111 249.33 131.697C249.572 131.284 249.694 130.846 249.694 130.382V128.832C249.608 128.911 249.448 128.986 249.213 129.057C248.977 129.128 248.71 129.189 248.411 129.239C248.111 129.288 247.819 129.335 247.534 129.378C247.249 129.413 247.01 129.442 246.818 129.463C246.369 129.527 245.959 129.627 245.588 129.762C245.218 129.891 244.918 130.083 244.69 130.34C244.469 130.589 244.359 130.921 244.359 131.334C244.359 131.911 244.573 132.346 245 132.638C245.428 132.93 245.97 133.077 246.625 133.077ZM256.119 118.751V134.68H253.81V118.751H256.119ZM263.047 134.926C261.878 134.926 260.866 134.673 260.011 134.167C259.156 133.661 258.497 132.948 258.033 132.029C257.577 131.102 257.349 130.023 257.349 128.79C257.349 127.564 257.574 126.484 258.023 125.55C258.479 124.617 259.117 123.89 259.936 123.369C260.763 122.842 261.732 122.578 262.844 122.578C263.521 122.578 264.177 122.689 264.811 122.91C265.446 123.131 266.016 123.48 266.522 123.957C267.028 124.435 267.427 125.055 267.719 125.818C268.019 126.58 268.168 127.5 268.168 128.576V129.41H258.664V127.667H266.971L265.891 128.244C265.891 127.51 265.777 126.862 265.549 126.299C265.321 125.736 264.979 125.297 264.523 124.984C264.074 124.663 263.514 124.503 262.844 124.503C262.174 124.503 261.6 124.663 261.123 124.984C260.653 125.304 260.293 125.728 260.043 126.256C259.794 126.783 259.669 127.361 259.669 127.988V129.174C259.669 129.994 259.812 130.689 260.097 131.259C260.382 131.829 260.777 132.264 261.283 132.563C261.796 132.863 262.392 133.012 263.069 133.012C263.511 133.012 263.91 132.948 264.266 132.82C264.63 132.692 264.943 132.499 265.207 132.243C265.471 131.986 265.67 131.669 265.806 131.291L268.008 131.708C267.83 132.35 267.516 132.913 267.067 133.397C266.618 133.882 266.051 134.26 265.367 134.531C264.69 134.794 263.917 134.926 263.047 134.926Z" fill="white"/>
<defs>
<filter id="filter0_d_144_204" x="127" y="107" width="230" height="230" filterUnits="userSpaceOnUse" color-interpolation-filters="sRGB">
<feFlood flood-opacity="0" result="BackgroundImageFix"/>
<feColorMatrix in="SourceAlpha" type="matrix" values="0 0 0 0 0 0 0 0 0 0 0 0 0 0 0 0 0 0 127 0" result="hardAlpha"/>
<feOffset dy="14"/>
<feGaussianBlur stdDeviation="20"/>
<feComposite in2="hardAlpha" operator="out"/>
<feColorMatrix type="matrix" values="0 0 0 0 0 0 0 0 0 0.317536 0 0 0 0 1 0 0 0 0.4 0"/>
<feBlend mode="normal" in2="BackgroundImageFix" result="effect1_dropShadow_144_204"/>
<feBlend mode="normal" in="SourceGraphic" in2="effect1_dropShadow_144_204" result="shape"/>
</filter>
<linearGradient id="paint0_linear_144_204" x1="242" y1="103" x2="242" y2="313" gradientUnits="userSpaceOnUse">
<stop stop-color="white" stop-opacity="0.64"/>
<stop offset="1" stop-color="#AEC7FF"/>
</linearGradient>
</defs>
</svg>
