<svg width="481" height="456" viewBox="0 0 481 456" fill="none" xmlns="http://www.w3.org/2000/svg">
<rect width="481" height="485" rx="20" fill="white"/>
<rect x="86.7939" y="99" width="298.412" height="353" rx="24.2612" fill="#F7F2F0"/>
<path d="M122.271 147.924C120.755 147.924 119.397 147.561 118.196 146.835C116.996 146.108 116.052 145.069 115.365 143.719C114.678 142.361 114.334 140.746 114.334 138.874C114.334 136.986 114.678 135.367 115.365 134.017C116.06 132.659 117.004 131.616 118.196 130.889C119.397 130.163 120.755 129.8 122.271 129.8C123.203 129.8 124.076 129.934 124.889 130.202C125.711 130.471 126.445 130.862 127.093 131.375C127.74 131.889 128.273 132.516 128.692 133.259C129.119 134.001 129.403 134.842 129.545 135.782H126.868C126.765 135.205 126.572 134.7 126.287 134.266C126.011 133.823 125.667 133.452 125.257 133.152C124.854 132.844 124.4 132.615 123.894 132.465C123.397 132.307 122.868 132.228 122.307 132.228C121.296 132.228 120.384 132.485 119.57 132.998C118.765 133.504 118.129 134.254 117.663 135.249C117.205 136.236 116.976 137.444 116.976 138.874C116.976 140.311 117.209 141.523 117.675 142.511C118.141 143.49 118.777 144.232 119.582 144.738C120.388 145.243 121.292 145.496 122.295 145.496C122.856 145.496 123.385 145.421 123.882 145.271C124.38 145.121 124.834 144.896 125.245 144.596C125.655 144.296 125.999 143.932 126.275 143.506C126.56 143.071 126.757 142.57 126.868 142.001H129.545C129.411 142.878 129.138 143.68 128.728 144.406C128.317 145.125 127.792 145.749 127.152 146.278C126.512 146.799 125.782 147.206 124.96 147.498C124.139 147.782 123.243 147.924 122.271 147.924ZM139.117 147.924C137.6 147.924 136.242 147.561 135.042 146.835C133.841 146.108 132.894 145.069 132.199 143.719C131.504 142.361 131.156 140.746 131.156 138.874C131.156 136.986 131.504 135.367 132.199 134.017C132.894 132.659 133.841 131.616 135.042 130.889C136.242 130.163 137.6 129.8 139.117 129.8C140.649 129.8 142.011 130.163 143.204 130.889C144.396 131.616 145.336 132.659 146.023 134.017C146.718 135.367 147.066 136.986 147.066 138.874C147.066 140.753 146.718 142.369 146.023 143.719C145.336 145.069 144.396 146.108 143.204 146.835C142.011 147.561 140.649 147.924 139.117 147.924ZM139.117 145.496C140.136 145.496 141.044 145.243 141.841 144.738C142.639 144.232 143.267 143.486 143.725 142.499C144.191 141.512 144.424 140.303 144.424 138.874C144.424 137.437 144.191 136.224 143.725 135.237C143.267 134.242 142.639 133.492 141.841 132.986C141.044 132.481 140.136 132.228 139.117 132.228C138.106 132.228 137.198 132.481 136.392 132.986C135.594 133.492 134.963 134.242 134.497 135.237C134.031 136.224 133.798 137.437 133.798 138.874C133.798 140.303 134.031 141.512 134.497 142.499C134.963 143.486 135.594 144.232 136.392 144.738C137.198 145.243 138.106 145.496 139.117 145.496ZM149.352 147.688V130.037H155.654C157.02 130.037 158.154 130.289 159.054 130.795C159.954 131.292 160.63 131.975 161.08 132.844C161.53 133.705 161.755 134.676 161.755 135.758C161.755 136.84 161.53 137.816 161.08 138.684C160.63 139.545 159.95 140.228 159.042 140.734C158.142 141.231 157.005 141.48 155.63 141.48H151.318V139.229H155.382C156.258 139.229 156.965 139.079 157.502 138.779C158.047 138.479 158.442 138.068 158.687 137.547C158.94 137.018 159.066 136.422 159.066 135.758C159.066 135.087 158.94 134.495 158.687 133.981C158.442 133.46 158.047 133.053 157.502 132.761C156.957 132.469 156.246 132.323 155.37 132.323H152.017V147.688H149.352ZM162.466 130.037H165.487L170.107 138.068H170.296L174.893 130.037H177.937L171.528 140.757V147.688H168.863V140.757L162.466 130.037ZM182.924 147.688L178.044 130.037H180.839L184.275 143.707H184.441L188.018 130.037H190.79L194.356 143.719H194.534L197.957 130.037H200.777L195.86 147.688H193.183L189.475 134.479H189.333L185.625 147.688H182.924ZM202.234 147.688V130.037H208.536C209.902 130.037 211.036 130.273 211.936 130.747C212.836 131.213 213.511 131.865 213.962 132.702C214.412 133.531 214.637 134.491 214.637 135.581C214.637 136.655 214.412 137.602 213.962 138.424C213.511 139.245 212.832 139.881 211.924 140.331C211.024 140.781 209.886 141.006 208.512 141.006H203.762V138.732H208.263C209.14 138.732 209.847 138.605 210.384 138.353C210.929 138.1 211.324 137.741 211.569 137.275C211.821 136.809 211.948 136.244 211.948 135.581C211.948 134.909 211.821 134.333 211.569 133.851C211.316 133.361 210.917 132.986 210.372 132.726C209.835 132.457 209.128 132.323 208.252 132.323H204.899V147.688H202.234ZM212.279 147.688L208.003 139.715H210.953L215.312 147.688H212.279ZM219.541 130.037V147.688H216.876V130.037H219.541ZM221.519 132.323V130.037H235.19V132.323H229.693V147.688H227.04V132.323H221.519ZM239.822 130.037V147.688H237.157V130.037H239.822ZM256.952 130.037V147.688H254.464L245.52 134.751H245.342V147.688H242.677V130.037H245.141L254.12 142.996H254.286V130.037H256.952ZM267.27 147.924C265.674 147.924 264.273 147.557 263.064 146.823C261.864 146.088 260.924 145.046 260.245 143.695C259.574 142.337 259.238 140.73 259.238 138.874C259.238 136.994 259.578 135.379 260.257 134.029C260.944 132.67 261.884 131.628 263.076 130.901C264.269 130.167 265.627 129.8 267.151 129.8C268.099 129.8 268.984 129.942 269.805 130.226C270.634 130.503 271.369 130.901 272.008 131.423C272.656 131.944 273.189 132.56 273.608 133.271C274.034 133.973 274.322 134.755 274.472 135.616H271.748C271.582 135.087 271.361 134.617 271.084 134.206C270.808 133.788 270.476 133.432 270.089 133.14C269.702 132.84 269.264 132.615 268.774 132.465C268.293 132.307 267.755 132.228 267.163 132.228C266.168 132.228 265.272 132.485 264.474 132.998C263.676 133.504 263.045 134.25 262.579 135.237C262.113 136.224 261.88 137.433 261.88 138.862C261.88 140.291 262.113 141.5 262.579 142.487C263.045 143.474 263.684 144.224 264.498 144.738C265.311 145.243 266.235 145.496 267.27 145.496C268.225 145.496 269.059 145.302 269.769 144.915C270.48 144.521 271.033 143.968 271.428 143.257C271.823 142.546 272.02 141.705 272.02 140.734L272.719 140.864H267.673V138.661H274.614V140.675C274.614 142.159 274.299 143.443 273.667 144.525C273.043 145.607 272.174 146.444 271.061 147.036C269.955 147.628 268.691 147.924 267.27 147.924Z" fill="#0D0D0D"/>
<rect x="113.481" y="172.097" width="245.038" height="15.7698" fill="#E3DEDC"/>
<rect x="113.481" y="201.21" width="245.038" height="15.7698" fill="#E3DEDC"/>
<rect x="113.481" y="230.323" width="245.038" height="15.7698" fill="#E3DEDC"/>
<rect x="113.481" y="259.437" width="245.038" height="15.7698" fill="#E3DEDC"/>
<rect x="113.481" y="288.55" width="245.038" height="15.7698" fill="#E3DEDC"/>
<rect x="113.481" y="317.664" width="215.038" height="15.7698" fill="#E3DEDC"/>
<rect x="113.481" y="346.777" width="245.038" height="15.7698" fill="#E3DEDC"/>
<rect x="113.481" y="375.891" width="245.038" height="15.7698" fill="#E3DEDC"/>
<rect x="113.481" y="405.004" width="145.567" height="15.7698" fill="#E3DEDC"/>
<g filter="url(#filter0_i_144_168)">
<rect x="339" y="129" width="95" height="95" rx="20" fill="#0051FF"/>
<path d="M389.15 162.872L374.884 165.726C374.087 165.885 373.688 165.965 373.364 166.159C373.077 166.33 372.833 166.565 372.65 166.844C372.444 167.161 372.349 167.556 372.158 168.346L365 198M365 198L394.654 190.842C395.444 190.651 395.839 190.556 396.156 190.35C396.435 190.167 396.67 189.923 396.841 189.636C397.035 189.312 397.115 188.913 397.274 188.116L400.128 173.85M365 198L381.655 181.345M406.426 166.975L396.025 156.574C395.156 155.705 394.721 155.27 394.22 155.107C393.779 154.964 393.304 154.964 392.863 155.107C392.361 155.27 391.927 155.705 391.057 156.574L389.439 158.193C388.569 159.063 388.134 159.497 387.972 159.999C387.828 160.44 387.828 160.915 387.972 161.355C388.134 161.857 388.569 162.291 389.439 163.161L399.839 173.561C400.709 174.431 401.143 174.866 401.645 175.028C402.085 175.172 402.56 175.172 403.001 175.028C403.503 174.866 403.937 174.431 404.807 173.561L406.426 171.943C407.295 171.073 407.73 170.639 407.893 170.137C408.036 169.696 408.036 169.221 407.893 168.78C407.73 168.279 407.295 167.844 406.426 166.975ZM384.759 173.85C387.184 173.85 389.15 175.816 389.15 178.241C389.15 180.666 387.184 182.632 384.759 182.632C382.334 182.632 380.368 180.666 380.368 178.241C380.368 175.816 382.334 173.85 384.759 173.85Z" stroke="white" stroke-width="4" stroke-linecap="round" stroke-linejoin="round"/>
</g>
<path d="M65 44L68.4684 53.0177C69.0324 54.4842 69.3144 55.2174 69.7529 55.8342C70.1416 56.3808 70.6192 56.8584 71.1658 57.2471C71.7826 57.6856 72.5158 57.9676 73.9823 58.5316L83 62L73.9823 65.4684C72.5158 66.0324 71.7826 66.3144 71.1658 66.7529C70.6192 67.1416 70.1416 67.6192 69.7529 68.1658C69.3144 68.7826 69.0324 69.5158 68.4684 70.9823L65 80L61.5316 70.9823C60.9676 69.5158 60.6856 68.7826 60.2471 68.1658C59.8584 67.6192 59.3808 67.1416 58.8342 66.7529C58.2174 66.3144 57.4842 66.0324 56.0177 65.4684L47 62L56.0177 58.5316C57.4842 57.9676 58.2174 57.6856 58.8342 57.2471C59.3808 56.8584 59.8584 56.3808 60.2471 55.8342C60.6856 55.2174 60.9676 54.4842 61.5316 53.0177L65 44Z" fill="#C3D6FF"/>
<path d="M48 82V72M48 52V42M43 47H53M43 77H53M65 44L61.5316 53.0177C60.9676 54.4842 60.6856 55.2174 60.2471 55.8342C59.8584 56.3808 59.3808 56.8584 58.8342 57.2471C58.2174 57.6856 57.4842 57.9676 56.0177 58.5316L47 62L56.0177 65.4684C57.4842 66.0324 58.2174 66.3144 58.8342 66.7529C59.3808 67.1416 59.8584 67.6192 60.2471 68.1658C60.6856 68.7826 60.9676 69.5158 61.5316 70.9823L65 80L68.4684 70.9823C69.0324 69.5158 69.3144 68.7826 69.7529 68.1658C70.1416 67.6192 70.6192 67.1416 71.1658 66.7529C71.7826 66.3144 72.5158 66.0324 73.9823 65.4684L83 62L73.9823 58.5316C72.5158 57.9676 71.7826 57.6856 71.1658 57.2471C70.6192 56.8584 70.1416 56.3808 69.7529 55.8342C69.3144 55.2174 69.0324 54.4842 68.4684 53.0177L65 44Z" stroke="#0051FF" stroke-width="3" stroke-linecap="round" stroke-linejoin="round"/>
<defs>
<filter id="filter0_i_144_168" x="339" y="129" width="95" height="119" filterUnits="userSpaceOnUse" color-interpolation-filters="sRGB">
<feFlood flood-opacity="0" result="BackgroundImageFix"/>
<feBlend mode="normal" in="SourceGraphic" in2="BackgroundImageFix" result="shape"/>
<feColorMatrix in="SourceAlpha" type="matrix" values="0 0 0 0 0 0 0 0 0 0 0 0 0 0 0 0 0 0 127 0" result="hardAlpha"/>
<feOffset dy="24"/>
<feGaussianBlur stdDeviation="12"/>
<feComposite in2="hardAlpha" operator="arithmetic" k2="-1" k3="1"/>
<feColorMatrix type="matrix" values="0 0 0 0 1 0 0 0 0 0.945632 0 0 0 0 0.945632 0 0 0 0.25 0"/>
<feBlend mode="normal" in2="shape" result="effect1_innerShadow_144_168"/>
</filter>
</defs>
</svg>
